Error: Video conversion failed: ffmpeg version 7.1.1 Copyright (c) 2000-2025 the FFmpeg developers built with gcc 14.2.1 (GCC) 20250322 configuration: --disable-static --prefix=/nix/store/eeeeeeeeeeeeeeeeeeeeeeeeeeeeeeee-ffmpeg-7.1.1 --target_os=linux --arch=x86_64 --pkg-config=pkg-config --enable-gpl --enable-version3 --disable-nonfree --disable-static --enable-shared --enable-pic --disable-thumb --disable-small --enable-runtime-cpudetect --disable-gray --enable-swscale-alpha --enable-hardcoded-tables --enable-safe-bitstream-reader --enable-pthreads --disable-w32threads --disable-os2threads --enable-network --enable-pixelutils --datadir=/nix/store/16zmy175ji519qm4zm718fl5asc5sbqh-ffmpeg-7.1.1-data/share/ffmpeg --enable-ffmpeg --enable-ffplay --enable-ffprobe --bindir=/nix/store/eeeeeeeeeeeeeeeeeeeeeeeeeeeeeeee-ffmpeg-7.1.1-bin/bin --enable-avcodec --enable-avdevice --enable-avfilter --enable-avformat --enable-avutil --enable-postproc --enable-swresample --enable-swscale --libdir=/nix/store/eeeeeeeeeeeeeeeeeeeeeeeeeeeeeeee-ffmpeg-7.1.1-lib/lib --incdir=/nix/store/eeeeeeeeeeeeeeeeeeeeeeeeeeeeeeee-ffmpeg-7.1.1-dev/include --enable-doc --enable-htmlpages --enable-manpages --mandir=/nix/store/eeeeeeeeeeeeeeeeeeeeeeeeeeeeeeee-ffmpeg-7.1.1-man/share/man --enable-podpages --enable-txtpages --docdir=/nix/store/eeeeeeeeeeeeeeeeeeeeeeeeeeeeeeee-ffmpeg-7.1.1-doc/share/doc/ffmpeg --enable-alsa --enable-amf --enable-libaom --disable-libaribb24 --disable-libaribcaption --enable-libass --disable-avisynth --enable-libbluray --disable-libbs2b --enable-bzlib --disable-libcaca --disable-libcdio --disable-libcelt --disable-chromaprint --disable-libcodec2 --disable-cuda --enable-cuda-llvm --disable-cuda-nvcc --enable-cuvid --enable-libdav1d --disable-libdc1394 --enable-libdrm --disable-libdvdnav --disable-libdvdread --disable-libfdk-aac --enable-ffnvcodec --disable-libflite --enable-fontconfig --enable-libfontconfig --enable-libfreetype --disable-frei0r --enable-libfribidi --disable-libgme --enable-gnutls --disable-libgsm --enable-libharfbuzz --enable-iconv --disable-libilbc --disable-libjack --disable-libjxl --disable-libkvazaar --disable-ladspa --disable-liblc3 --disable-liblcevc-dec --disable-lcms2 --enable-lzma --disable-metal --disable-libmfx --disable-libmodplug --enable-libmp3lame --disable-libmysofa --disable-libnpp --enable-nvdec --enable-nvenc --disable-openal --enable-opencl --disable-libopencore-amrnb --disable-libopencore-amrwb --disable-opengl --disable-libopenh264 --enable-libopenjpeg --enable-libopenmpt --enable-libopus --disable-libplacebo --enable-libpulse --disable-libqrencode --disable-libquirc --disable-librav1e --enable-librist --disable-librtmp --disable-librubberband --disable-libsmbclient --enable-sdl2 --disable-libshaderc --disable-libshine --disable-libsnappy --enable-libsoxr --enable-libspeex --enable-libsrt --enable-libssh --disable-librsvg --enable-libsvtav1 --disable-libtensorflow --enable-libtheora --disable-libtwolame --enable-libv4l2 --enable-v4l2-m2m --enable-vaapi --enable-vdpau --disable-libvpl --enable-libvidstab --disable-libvmaf --disable-libvo-amrwbenc --enable-libvorbis --enable-libvpx --enable-vulkan --disable-libvvenc --enable-libwebp --enable-libx264 --enable-libx265 --disable-libxavs --disable-libxcb --disable-libxcb-shape --disable-libxcb-shm --disable-libxcb-xfixes --disable-libxevd --disable-libxeve --disable-xlib --enable-libxml2 --enable-libxvid --enable-libzimg --enable-zlib --disable-libzmq --enable-libzvbi --disable-debug --enable-optimizations --disable-extra-warnings --disable-stripping libavutil 59. 39.100 / 59. 39.100 libavcodec 61. 19.101 / 61. 19.101 libavformat 61. 7.100 / 61. 7.100 libavdevice 61. 3.100 / 61. 3.100 libavfilter 10. 4.100 / 10. 4.100 libswscale 8. 3.100 / 8. 3.100 libswresample 5. 3.100 / 5. 3.100 libpostproc 58. 3.100 / 58. 3.100 Input #0, mov,mp4,m4a,3gp,3g2,mj2, from '/tmp/uploads/ed5e40ce-b39f-4fba-b7ce-4ed6fa193e6f_video.mp4': Metadata: major_brand : isom minor_version : 512 compatible_brands: isomiso2avc1mp41 encoder : Lavf61.7.100 Duration: 00:01:10.10, start: 0.000000, bitrate: 1072 kb/s Stream #0:0[0x1](und): Video: h264 (High) (avc1 / 0x31637661), yuv420p(progressive), 864x480 [SAR 1:1 DAR 9:5], 891 kb/s, 30 fps, 30 tbr, 15360 tbn (default) Metadata: handler_name : VideoHandler vendor_id : [0][0][0][0] encoder : Lavc61.19.101 libx264 Stream #0:1[0x2](und): Audio: aac (LC) (mp4a / 0x6134706D), 44100 Hz, stereo, fltp, 202 kb/s (default) Metadata: handler_name : SoundHandler vendor_id : [0][0][0][0] Input #1, png_pipe, from '/tmp/uploads/ed5e40ce-b39f-4fba-b7ce-4ed6fa193e6f_watermark.png': Duration: N/A, bitrate: N/A Stream #1:0: Video: png, rgba(pc, gbr/unknown/unknown), 685x321 [SAR 3780:3780 DAR 685:321], 25 fps, 25 tbr, 25 tbn [out#0/mp4 @ 0xaa9b300] Output with label 'v' does not exist in any defined filter graph, or was already used elsewhere. Error opening output file /tmp/outputs/ed5e40ce-b39f-4fba-b7ce-4ed6fa193e6f_vertical.mp4. Error opening output files: Invalid argument